<?xml version="1.0" standalone="no"?>
<!DOCTYPE svg PUBLIC "-//W3C//DTD SVG 20010904//EN"
 "http://www.w3.org/TR/2001/REC-SVG-20010904/DTD/svg10.dtd">
<svg version="1.0" xmlns="http://www.w3.org/2000/svg"
 width="208.000000pt" height="36.000000pt" viewBox="0 0 208.000000 36.000000"
 preserveAspectRatio="xMidYMid meet">

<g transform="translate(0.000000,36.000000) scale(0.100000,-0.100000)"
fill="#000000" stroke="none">
<path d="M83 325 c-98 -59 -109 -191 -23 -268 67 -61 154 -62 218 -2 30 28 34
37 22 44 -11 7 -22 0 -47 -29 -41 -47 -79 -58 -127 -35 -73 35 -104 136 -68
218 21 48 69 87 107 87 31 0 83 -32 103 -62 13 -19 22 -24 32 -18 12 7 10 14
-10 35 -57 61 -136 72 -207 30z"/>
<path d="M845 338 c-3 -7 -4 -83 -3 -168 3 -138 5 -155 21 -158 14 -3 17 4 17
46 0 49 0 49 44 66 90 34 109 136 38 200 -28 24 -109 34 -117 14z m88 -24 c28
-28 43 -79 33 -112 -11 -34 -46 -72 -67 -72 -18 0 -19 8 -19 105 0 116 6 126
53 79z"/>
<path d="M1250 180 c0 -163 1 -170 20 -170 17 0 20 7 20 50 0 28 3 50 8 50 4
0 22 -23 40 -50 17 -28 39 -50 47 -50 22 0 18 13 -18 61 l-34 43 39 36 c31 30
38 44 38 74 0 75 -50 126 -125 126 l-35 0 0 -170z m91 131 c23 -23 29 -38 29
-71 0 -63 -30 -110 -71 -110 -5 0 -9 47 -9 105 0 68 4 105 11 105 6 0 24 -13
40 -29z"/>
<path d="M1450 180 c0 -144 2 -170 15 -170 13 0 15 26 15 170 0 144 -2 170
-15 170 -13 0 -15 -26 -15 -170z"/>
<path d="M1660 233 l0 -118 -29 50 c-16 28 -45 79 -65 115 l-36 65 0 -167 c0
-141 2 -168 15 -168 12 0 15 22 17 118 l3 117 20 -33 c11 -19 41 -70 67 -115
l48 -82 0 168 c0 160 -1 167 -20 167 -19 0 -20 -7 -20 -117z"/>
<path d="M1825 332 c-79 -50 -112 -133 -80 -208 43 -104 140 -141 235 -91 51
27 90 90 90 146 -1 51 -32 114 -71 141 -45 33 -132 39 -174 12z m135 -14 c68
-47 89 -141 50 -218 -42 -82 -124 -99 -186 -39 -78 76 -63 218 29 263 44 21
68 20 107 -6z"/>
<path d="M424 318 c-3 -13 -28 -83 -55 -156 -54 -146 -55 -152 -34 -152 8 0
22 21 32 50 l18 50 53 0 53 0 21 -50 c12 -28 27 -50 35 -50 20 0 14 22 -48
182 -27 70 -49 132 -49 138 0 19 -19 10 -26 -12z m41 -129 c9 -28 15 -53 12
-55 -3 -3 -23 -4 -45 -2 l-39 3 20 53 c11 28 23 52 28 52 4 0 15 -23 24 -51z"/>
<path d="M600 176 c0 -139 2 -166 15 -166 12 0 15 22 17 113 l3 112 31 -59 31
-60 27 46 c14 24 26 50 26 56 0 7 5 12 10 12 6 0 10 -43 10 -110 0 -91 3 -110
15 -110 13 0 15 25 14 168 l0 167 -47 -92 c-26 -51 -49 -93 -52 -93 -3 0 -26
41 -52 91 l-48 92 0 -167z"/>
<path d="M1093 324 c-24 -46 -116 -305 -110 -310 14 -15 35 7 47 50 l13 46 56
0 57 0 18 -50 c13 -36 23 -50 37 -50 17 0 17 3 -5 63 -101 267 -103 271 -113
251z m37 -146 l18 -48 -45 0 c-42 0 -45 2 -39 23 12 49 39 102 44 87 2 -8 13
-36 22 -62z"/>
</g>
</svg>
